<?xml version="1.0" encoding="UTF-8" standalone="no"?>
<!DOCTYPE svg PUBLIC "-//W3C//DTD SVG 1.1//EN" "http://www.w3.org/Graphics/SVG/1.1/DTD/svg11.dtd">
<svg width="100%" height="100%" viewBox="0 0 1001 1001" version="1.1" xmlns="http://www.w3.org/2000/svg" xmlns:xlink="http://www.w3.org/1999/xlink" xml:space="preserve" xmlns:serif="http://www.serif.com/" style="fill-rule:evenodd;clip-rule:evenodd;stroke-linecap:square;stroke-miterlimit:1.5;">
    <g>
        <g transform="matrix(1,0,0,1,-0.532606,4.807738)">
            <g transform="matrix(1.574157,0,0,1.574157,-287.118867,-210.282673)">
                <g>
                    <g>
                        <path d="M619.009,398.448L618.599,493.618C618.528,493.74 619.004,398.586 619.009,398.448Z"/>
                        <path d="M619.009,398.448L618.599,493.618C618.528,493.74 619.004,398.586 619.009,398.448Z"/>
                        <path d="M619.009,398.444C619.024,396.891 632.435,375.562 638.501,365.161C643.339,356.867 647.205,349.803 647.141,349.802C639.874,349.694 623.432,349.571 615.284,349.61L589.448,302.917L729.355,302.917C718.404,322.405 631.072,472.104 618.599,493.618C618.528,493.74 619.006,398.31 619.009,398.448L618.599,493.618L539.68,350.166L512.962,349.755L607.912,513.348L580.783,560.206L432.81,302.917L567.072,302.917L619.01,398.257L619.009,398.444Z"/>
                        <path d="M618.599,493.618L539.68,350.166L512.962,349.755L607.912,513.348L580.783,560.206L432.81,302.917L567.072,302.917L619.01,398.257L619.009,398.444C619.024,396.891 632.435,375.562 638.501,365.161C643.339,356.867 647.205,349.803 647.141,349.802C639.874,349.694 623.432,349.571 615.284,349.61L589.448,302.917L729.355,302.917C718.404,322.405 631.072,472.104 618.599,493.618L619.008,398.808L619.009,398.81L619.022,398.794L619.009,398.807L619.008,398.805L619.009,398.448C619.009,398.453 619.008,398.575 619.007,398.804L619.002,398.799L619.007,398.807C618.971,405.161 618.531,493.736 618.599,493.618ZM618.967,492.261C633.499,467.227 716.773,324.47 728.735,303.279L590.062,303.279L615.497,349.247C623.717,349.211 639.941,349.333 647.147,349.44L647.285,349.469L647.409,349.557L647.487,349.692L647.502,349.842C647.5,349.862 647.467,349.98 647.368,350.173C646.744,351.394 643.173,357.87 638.814,365.344C633.962,373.662 624.411,388.973 620.777,395.56C620.15,396.696 619.701,397.568 619.488,398.094C619.42,398.262 619.372,398.379 619.372,398.448L619.372,398.45L618.967,492.261ZM618.647,398.458L618.647,398.441L618.647,398.439L618.647,398.349L566.856,303.279L433.436,303.279L580.784,559.481L607.493,513.348L512.649,349.937L512.968,349.393L539.685,349.804L539.997,349.991L618.229,492.195L618.23,491.468C618.246,478.889 618.561,414.903 618.633,401.081L618.647,398.47L618.647,398.458Z"/>
                        <path d="M272.009,302.917L376.576,484.102L456.482,484.102L512.465,583.388L500,606.509C500,606.509 442.733,506.689 442.219,506.689C441.705,506.689 388.127,506.833 388.127,506.833L500,699.363L567.072,582.731L484.179,438.021C479.779,438.171 403.723,438.662 403.056,437.41C400.636,432.864 369.124,379.229 352.305,349.981L378.508,349.981L414.356,416.613L471.344,416.403L405.739,303.225"/>
                    </g>
                </g>
            </g>
            <g transform="matrix(1.574157,0,0,1.574157,-287.118867,-271.674791)">
                <g transform="matrix(1,0,0,1,11,0)">
                    <path d="M288.306,614.234L288.306,445.073L310.216,483.652L333.185,521.711L333.185,587.56L390.42,621.249L434.601,697.918L288.306,614.234Z"/>
                    <path d="M288.306,614.234L288.306,445.073L310.216,483.652L333.185,521.711L333.185,587.56L390.42,621.249L434.601,697.918L288.306,614.234ZM288.393,614.184L434.367,697.684L390.356,621.311L333.142,587.634L333.099,587.56L333.099,521.735L310.142,483.697L310.141,483.695L288.393,445.4L288.393,614.184Z"/>
                </g>
                <g transform="matrix(0.503217,0.86416,0.86416,-0.503217,-176.430331,296.544326)">
                    <path d="M288.306,614.234L288.306,445.073L310.216,483.652L333.185,521.711L333.185,587.56L390.42,621.249L434.601,697.918L288.306,614.234Z"/>
                    <path d="M288.306,614.234L434.601,697.918L390.42,621.249L333.185,587.56L333.185,521.711L310.216,483.652L288.306,445.073L288.306,614.234ZM288.393,614.184L288.393,445.4L310.141,483.695L310.142,483.697L333.099,521.735L333.099,587.56L333.142,587.634L390.356,621.311L434.367,697.684L288.393,614.184Z"/>
                </g>
                <g transform="matrix(-1,0,0,1,986.171108,0)">
                    <path d="M288.306,614.234L288.306,445.073L310.216,483.652L333.185,521.711L333.185,587.56L390.42,621.249L434.601,697.918L288.306,614.234Z" style="stroke:#000;stroke-width:0.09px;"/>
                </g>
            </g>
        </g>
    </g>
</svg>
